# Wavefront .OBJ file for tesselated shape: Torso-1 path: C:\Users\dasgu\Documents\Chrono_Biped\Biped_V5\Torso.SLDPRT

g body_1
v -0.011656 -0.004516 0.000000
v -0.012500 0.000000 0.000000
v -0.012500 0.000000 0.360000
v -0.009238 -0.008421 0.000000
v -0.011656 -0.004516 0.360000
v -0.005572 -0.011190 0.000000
v -0.009238 -0.008421 0.360000
v -0.001153 -0.012447 0.000000
v -0.005572 -0.011190 0.360000
v 0.003421 -0.012023 0.000000
v -0.001153 -0.012447 0.360000
v 0.007533 -0.009975 0.000000
v 0.003421 -0.012023 0.360000
v 0.010628 -0.006580 0.000000
v 0.007533 -0.009975 0.360000
v 0.012287 -0.002297 0.000000
v 0.010628 -0.006580 0.360000
v 0.012287 0.002297 0.000000
v 0.012500 0.000000 0.000000
v 0.012500 0.000000 0.360000
v 0.012287 -0.002297 0.360000
v 0.010628 0.006580 0.000000
v 0.012287 0.002297 0.360000
v 0.007533 0.009975 0.000000
v 0.010628 0.006580 0.360000
v 0.003421 0.012023 0.000000
v 0.007533 0.009975 0.360000
v -0.001153 0.012447 0.000000
v 0.003421 0.012023 0.360000
v -0.005572 0.011190 0.000000
v -0.001153 0.012447 0.360000
v -0.009238 0.008421 0.000000
v -0.005572 0.011190 0.360000
v -0.011656 0.004516 0.000000
v -0.009238 0.008421 0.360000
v -0.011656 0.004516 0.360000
v 0.025000 0.025000 0.360000
v 0.010628 0.006580 0.360000
v 0.012287 0.002297 0.360000
v 0.007533 0.009975 0.360000
v -0.025000 0.025000 0.360000
v -0.001153 0.012447 0.360000
v 0.003421 0.012023 0.360000
v -0.005572 0.011190 0.360000
v -0.025000 -0.025000 0.360000
v -0.012500 0.000000 0.360000
v -0.009238 0.008421 0.360000
v -0.011656 0.004516 0.360000
v -0.005572 -0.011190 0.360000
v -0.009238 -0.008421 0.360000
v 0.025000 -0.025000 0.360000
v 0.012500 0.000000 0.360000
v -0.001153 -0.012447 0.360000
v 0.003421 -0.012023 0.360000
v 0.012287 -0.002297 0.360000
v -0.011656 -0.004516 0.360000
v 0.010628 -0.006580 0.360000
v 0.007533 -0.009975 0.360000
v 0.025000 -0.025000 0.000000
v 0.012287 -0.002297 0.000000
v 0.012500 0.000000 0.000000
v 0.025000 0.025000 0.000000
v 0.010628 -0.006580 0.000000
v 0.012287 0.002297 0.000000
v 0.010628 0.006580 0.000000
v -0.025000 -0.025000 0.000000
v -0.001153 -0.012447 0.000000
v 0.007533 -0.009975 0.000000
v -0.005572 -0.011190 0.000000
v -0.025000 0.025000 0.000000
v -0.011656 0.004516 0.000000
v -0.012500 0.000000 0.000000
v 0.007533 0.009975 0.000000
v -0.009238 -0.008421 0.000000
v -0.009238 0.008421 0.000000
v 0.003421 0.012023 0.000000
v -0.001153 0.012447 0.000000
v 0.003421 -0.012023 0.000000
v -0.011656 -0.004516 0.000000
v -0.005572 0.011190 0.000000
v -0.025000 -0.025000 0.360000
v -0.025000 -0.025000 0.000000
v 0.025000 -0.025000 0.000000
v 0.025000 -0.025000 0.360000
v 0.025000 -0.025000 0.360000
v 0.025000 -0.025000 0.000000
v 0.025000 0.025000 0.000000
v 0.025000 0.025000 0.360000
v 0.025000 0.025000 0.360000
v 0.025000 0.025000 0.000000
v -0.025000 0.025000 0.000000
v -0.025000 0.025000 0.360000
v -0.025000 0.025000 0.360000
v -0.025000 0.025000 0.000000
v -0.025000 -0.025000 0.000000
v -0.025000 -0.025000 0.360000
vn 0.932 0.361 0.000
vn 1.000 0.000 0.000
vn 1.000 0.000 0.000
vn 0.739 0.674 0.000
vn 0.932 0.361 0.000
vn 0.446 0.895 0.000
vn 0.739 0.674 0.000
vn 0.092 0.996 0.000
vn 0.446 0.895 0.000
vn -0.274 0.962 0.000
vn 0.092 0.996 0.000
vn -0.603 0.798 0.000
vn -0.274 0.962 0.000
vn -0.850 0.526 0.000
vn -0.603 0.798 0.000
vn -0.983 0.184 0.000
vn -0.850 0.526 0.000
vn -0.983 -0.184 0.000
vn -1.000 0.000 0.000
vn -1.000 0.000 0.000
vn -0.983 0.184 0.000
vn -0.850 -0.526 0.000
vn -0.983 -0.184 0.000
vn -0.603 -0.798 0.000
vn -0.850 -0.526 0.000
vn -0.274 -0.962 0.000
vn -0.603 -0.798 0.000
vn 0.092 -0.996 0.000
vn -0.274 -0.962 0.000
vn 0.446 -0.895 0.000
vn 0.092 -0.996 0.000
vn 0.739 -0.674 0.000
vn 0.446 -0.895 0.000
vn 0.932 -0.361 0.000
vn 0.739 -0.674 0.000
vn 0.932 -0.361 0.000
vn 0.000 0.000 1.000
vn 0.000 0.000 1.000
vn 0.000 0.000 1.000
vn 0.000 0.000 1.000
vn 0.000 0.000 1.000
vn 0.000 0.000 1.000
vn 0.000 0.000 1.000
vn 0.000 0.000 1.000
vn 0.000 0.000 1.000
vn 0.000 0.000 1.000
vn 0.000 0.000 1.000
vn 0.000 0.000 1.000
vn 0.000 0.000 1.000
vn 0.000 0.000 1.000
vn 0.000 0.000 1.000
vn 0.000 0.000 1.000
vn 0.000 0.000 1.000
vn 0.000 0.000 1.000
vn 0.000 0.000 1.000
vn 0.000 0.000 1.000
vn 0.000 0.000 1.000
vn 0.000 0.000 1.000
vn 0.000 0.000 -1.000
vn 0.000 0.000 -1.000
vn 0.000 0.000 -1.000
vn 0.000 0.000 -1.000
vn 0.000 0.000 -1.000
vn 0.000 0.000 -1.000
vn 0.000 0.000 -1.000
vn 0.000 0.000 -1.000
vn 0.000 0.000 -1.000
vn 0.000 0.000 -1.000
vn 0.000 0.000 -1.000
vn 0.000 0.000 -1.000
vn 0.000 0.000 -1.000
vn 0.000 0.000 -1.000
vn 0.000 0.000 -1.000
vn 0.000 0.000 -1.000
vn 0.000 0.000 -1.000
vn 0.000 0.000 -1.000
vn 0.000 0.000 -1.000
vn 0.000 0.000 -1.000
vn 0.000 0.000 -1.000
vn 0.000 0.000 -1.000
vn 0.000 -1.000 0.000
vn 0.000 -1.000 0.000
vn 0.000 -1.000 0.000
vn 0.000 -1.000 0.000
vn 1.000 0.000 0.000
vn 1.000 0.000 0.000
vn 1.000 0.000 0.000
vn 1.000 0.000 0.000
vn 0.000 1.000 0.000
vn 0.000 1.000 0.000
vn 0.000 1.000 0.000
vn 0.000 1.000 0.000
vn -1.000 0.000 0.000
vn -1.000 0.000 0.000
vn -1.000 0.000 0.000
vn -1.000 0.000 0.000
vt -0.3696 0.3600 0
vt 0.0000 0.3600 0
vt 0.0000 0.0000 0
vt 5.5440 0.3600 0
vt -0.3696 0.0000 0
vt 5.1744 0.3600 0
vt 5.5440 0.0000 0
vt 4.8048 0.3600 0
vt 5.1744 0.0000 0
vt 4.4352 0.3600 0
vt 4.8048 0.0000 0
vt 4.0656 0.3600 0
vt 4.4352 0.0000 0
vt 3.6960 0.3600 0
vt 4.0656 0.0000 0
vt 3.3264 0.3600 0
vt 3.6960 0.0000 0
vt 2.9568 0.3600 0
vt 3.1416 0.3600 0
vt 3.1416 0.0000 0
vt 3.3264 0.0000 0
vt 2.5872 0.3600 0
vt 2.9568 0.0000 0
vt 2.2176 0.3600 0
vt 2.5872 0.0000 0
vt 1.8480 0.3600 0
vt 2.2176 0.0000 0
vt 1.4784 0.3600 0
vt 1.8480 0.0000 0
vt 1.1088 0.3600 0
vt 1.4784 0.0000 0
vt 0.7392 0.3600 0
vt 1.1088 0.0000 0
vt 0.3696 0.3600 0
vt 0.7392 0.0000 0
vt 0.3696 0.0000 0
vt 0.0250 0.0250 0
vt 0.0106 0.0066 0
vt 0.0123 0.0023 0
vt 0.0075 0.0100 0
vt -0.0250 0.0250 0
vt -0.0012 0.0124 0
vt 0.0034 0.0120 0
vt -0.0056 0.0112 0
vt -0.0250 -0.0250 0
vt -0.0125 0.0000 0
vt -0.0092 0.0084 0
vt -0.0117 0.0045 0
vt -0.0056 -0.0112 0
vt -0.0092 -0.0084 0
vt 0.0250 -0.0250 0
vt 0.0125 0.0000 0
vt -0.0012 -0.0124 0
vt 0.0034 -0.0120 0
vt 0.0123 -0.0023 0
vt -0.0117 -0.0045 0
vt 0.0106 -0.0066 0
vt 0.0075 -0.0100 0
vt 0.0250 -0.0250 0
vt 0.0123 -0.0023 0
vt 0.0125 0.0000 0
vt 0.0250 0.0250 0
vt 0.0106 -0.0066 0
vt 0.0123 0.0023 0
vt 0.0106 0.0066 0
vt -0.0250 -0.0250 0
vt -0.0012 -0.0124 0
vt 0.0075 -0.0100 0
vt -0.0056 -0.0112 0
vt -0.0250 0.0250 0
vt -0.0117 0.0045 0
vt -0.0125 0.0000 0
vt 0.0075 0.0100 0
vt -0.0092 -0.0084 0
vt -0.0092 0.0084 0
vt 0.0034 0.0120 0
vt -0.0012 0.0124 0
vt 0.0034 -0.0120 0
vt -0.0117 -0.0045 0
vt -0.0056 0.0112 0
vt 0.0000 -0.0250 0
vt -0.3600 -0.0250 0
vt -0.3600 0.0250 0
vt 0.0000 0.0250 0
vt 0.0000 -0.0250 0
vt -0.3600 -0.0250 0
vt -0.3600 0.0250 0
vt 0.0000 0.0250 0
vt 0.0000 0.0250 0
vt -0.3600 0.0250 0
vt -0.3600 -0.0250 0
vt 0.0000 -0.0250 0
vt 0.0000 0.0250 0
vt -0.3600 0.0250 0
vt -0.3600 -0.0250 0
vt 0.0000 -0.0250 0
f 81/81/81 83/83/83 84/84/84
f 83/83/83 81/81/81 82/82/82
f 85/85/85 87/87/87 88/88/88
f 87/87/87 85/85/85 86/86/86
f 91/91/91 89/89/89 90/90/90
f 89/89/89 91/91/91 92/92/92
f 95/95/95 93/93/93 94/94/94
f 93/93/93 95/95/95 96/96/96
f 3/3/3 1/1/1 2/2/2
f 27/27/27 26/26/26 24/24/24
f 25/25/25 24/24/24 22/22/22
f 23/23/23 22/22/22 18/18/18
f 21/21/21 19/19/19 16/16/16
f 19/19/19 21/21/21 20/20/20
f 29/29/29 28/28/28 26/26/26
f 17/17/17 16/16/16 14/14/14
f 15/15/15 14/14/14 12/12/12
f 13/13/13 12/12/12 10/10/10
f 11/11/11 10/10/10 8/8/8
f 9/9/9 8/8/8 6/6/6
f 7/7/7 6/6/6 4/4/4
f 5/5/5 4/4/4 1/1/1
f 31/31/31 30/30/30 28/28/28
f 33/33/33 32/32/32 30/30/30
f 35/35/35 34/34/34 32/32/32
f 36/36/36 2/2/2 34/34/34
f 2/2/2 36/36/36 3/3/3
f 34/34/34 35/35/35 36/36/36
f 32/32/32 33/33/33 35/35/35
f 1/1/1 3/3/3 5/5/5
f 4/4/4 5/5/5 7/7/7
f 6/6/6 7/7/7 9/9/9
f 8/8/8 9/9/9 11/11/11
f 10/10/10 11/11/11 13/13/13
f 12/12/12 13/13/13 15/15/15
f 14/14/14 15/15/15 17/17/17
f 16/16/16 17/17/17 21/21/21
f 18/18/18 20/20/20 23/23/23
f 22/22/22 23/23/23 25/25/25
f 24/24/24 25/25/25 27/27/27
f 26/26/26 27/27/27 29/29/29
f 28/28/28 29/29/29 31/31/31
f 20/20/20 18/18/18 19/19/19
f 30/30/30 31/31/31 33/33/33
f 41/41/41 46/46/46 48/48/48
f 37/37/37 39/39/39 52/52/52
f 51/51/51 58/58/58 54/54/54
f 51/51/51 57/57/57 58/58/58
f 45/45/45 50/50/50 56/56/56
f 51/51/51 55/55/55 57/57/57
f 51/51/51 53/53/53 45/45/45
f 46/46/46 45/45/45 56/56/56
f 51/51/51 52/52/52 55/55/55
f 53/53/53 51/51/51 54/54/54
f 49/49/49 45/45/45 53/53/53
f 41/41/41 48/48/48 47/47/47
f 52/52/52 51/51/51 37/37/37
f 50/50/50 45/45/45 49/49/49
f 44/44/44 41/41/41 47/47/47
f 46/46/46 41/41/41 45/45/45
f 37/37/37 42/42/42 43/43/43
f 42/42/42 41/41/41 44/44/44
f 40/40/40 37/37/37 43/43/43
f 42/42/42 37/37/37 41/41/41
f 38/38/38 37/37/37 40/40/40
f 39/39/39 37/37/37 38/38/38
f 70/70/70 72/72/72 66/66/66
f 79/79/79 66/66/66 72/72/72
f 70/70/70 77/77/77 80/80/80
f 59/59/59 67/67/67 78/78/78
f 62/62/62 77/77/77 70/70/70
f 75/75/75 70/70/70 80/80/80
f 74/74/74 66/66/66 79/79/79
f 68/68/68 59/59/59 78/78/78
f 77/77/77 62/62/62 76/76/76
f 71/71/71 70/70/70 75/75/75
f 69/69/69 66/66/66 74/74/74
f 62/62/62 65/65/65 73/73/73
f 72/72/72 70/70/70 71/71/71
f 67/67/67 66/66/66 69/69/69
f 63/63/63 59/59/59 68/68/68
f 67/67/67 59/59/59 66/66/66
f 62/62/62 64/64/64 65/65/65
f 62/62/62 61/61/61 64/64/64
f 60/60/60 59/59/59 63/63/63
f 59/59/59 61/61/61 62/62/62
f 61/61/61 59/59/59 60/60/60
f 62/62/62 73/73/73 76/76/76
