# Wavefront .OBJ file for tesselated shape: torso1-1 path: C:\Users\dasgu\Documents\Chrono_Biped\BIped_V8\torso1.SLDPRT

g body_1
v -0.002052 0.010000 0.013638
v 0.000000 0.010000 0.014000
v 0.000000 -0.010000 0.014000
v -0.003857 0.010000 0.012596
v -0.002052 -0.010000 0.013638
v -0.005196 0.010000 0.011000
v -0.003857 -0.010000 0.012596
v -0.005909 0.010000 0.009042
v -0.005196 -0.010000 0.011000
v -0.005909 0.010000 0.006958
v -0.005909 -0.010000 0.009042
v -0.005196 0.010000 0.005000
v -0.005909 -0.010000 0.006958
v -0.003857 0.010000 0.003404
v -0.005196 -0.010000 0.005000
v -0.002052 0.010000 0.002362
v -0.003857 -0.010000 0.003404
v 0.000000 0.010000 0.002000
v -0.002052 -0.010000 0.002362
v 0.002052 0.010000 0.002362
v 0.000000 -0.010000 0.002000
v 0.003857 0.010000 0.003404
v 0.002052 -0.010000 0.002362
v 0.005196 0.010000 0.005000
v 0.003857 -0.010000 0.003404
v 0.005909 0.010000 0.006958
v 0.005196 -0.010000 0.005000
v 0.005909 0.010000 0.009042
v 0.005909 -0.010000 0.006958
v 0.005196 0.010000 0.011000
v 0.005909 -0.010000 0.009042
v 0.003857 0.010000 0.012596
v 0.005196 -0.010000 0.011000
v 0.002052 0.010000 0.013638
v 0.003857 -0.010000 0.012596
v 0.002052 -0.010000 0.013638
v 0.010000 0.010000 0.160000
v 0.010000 0.010000 0.000000
v 0.005909 0.010000 0.009042
v 0.005196 0.010000 0.011000
v 0.005909 0.010000 0.006958
v 0.003857 0.010000 0.003404
v 0.005196 0.010000 0.005000
v -0.010000 0.010000 0.160000
v -0.005196 0.010000 0.011000
v -0.005909 0.010000 0.009042
v -0.010000 0.010000 0.000000
v -0.002052 0.010000 0.002362
v 0.000000 0.010000 0.002000
v -0.005909 0.010000 0.006958
v -0.005196 0.010000 0.005000
v 0.002052 0.010000 0.002362
v 0.000000 0.010000 0.014000
v -0.003857 0.010000 0.003404
v -0.002052 0.010000 0.013638
v -0.003857 0.010000 0.012596
v 0.003857 0.010000 0.012596
v 0.002052 0.010000 0.013638
v 0.010000 -0.010000 0.000000
v 0.005909 -0.010000 0.006958
v 0.005196 -0.010000 0.005000
v 0.010000 -0.010000 0.160000
v 0.005196 -0.010000 0.011000
v 0.005909 -0.010000 0.009042
v -0.010000 -0.010000 0.160000
v -0.010000 -0.010000 0.000000
v -0.005909 -0.010000 0.009042
v 0.003857 -0.010000 0.012596
v -0.005909 -0.010000 0.006958
v -0.003857 -0.010000 0.003404
v -0.005196 -0.010000 0.005000
v -0.002052 -0.010000 0.013638
v 0.000000 -0.010000 0.014000
v 0.003857 -0.010000 0.003404
v -0.003857 -0.010000 0.012596
v -0.002052 -0.010000 0.002362
v 0.000000 -0.010000 0.002000
v 0.002052 -0.010000 0.002362
v 0.002052 -0.010000 0.013638
v -0.005196 -0.010000 0.011000
v 0.010000 -0.010000 0.160000
v 0.010000 -0.010000 0.000000
v 0.010000 0.010000 0.000000
v 0.010000 0.010000 0.160000
v -0.010000 0.010000 0.160000
v -0.010000 0.010000 0.000000
v -0.010000 -0.010000 0.000000
v -0.010000 -0.010000 0.160000
v -0.010000 -0.010000 0.160000
v 0.010000 -0.010000 0.160000
v 0.010000 0.010000 0.160000
v -0.010000 0.010000 0.160000
v -0.010000 0.010000 0.000000
v 0.010000 0.010000 0.000000
v 0.010000 -0.010000 0.000000
v -0.010000 -0.010000 0.000000
vn 0.342 0.000 -0.940
vn 0.000 0.000 -1.000
vn 0.000 0.000 -1.000
vn 0.643 0.000 -0.766
vn 0.342 0.000 -0.940
vn 0.866 0.000 -0.500
vn 0.643 0.000 -0.766
vn 0.985 0.000 -0.174
vn 0.866 0.000 -0.500
vn 0.985 0.000 0.174
vn 0.985 0.000 -0.174
vn 0.866 0.000 0.500
vn 0.985 0.000 0.174
vn 0.643 0.000 0.766
vn 0.866 0.000 0.500
vn 0.342 0.000 0.940
vn 0.643 0.000 0.766
vn 0.000 0.000 1.000
vn 0.342 0.000 0.940
vn -0.342 0.000 0.940
vn 0.000 0.000 1.000
vn -0.643 0.000 0.766
vn -0.342 0.000 0.940
vn -0.866 0.000 0.500
vn -0.643 0.000 0.766
vn -0.985 0.000 0.174
vn -0.866 0.000 0.500
vn -0.985 0.000 -0.174
vn -0.985 0.000 0.174
vn -0.866 0.000 -0.500
vn -0.985 0.000 -0.174
vn -0.643 0.000 -0.766
vn -0.866 0.000 -0.500
vn -0.342 0.000 -0.940
vn -0.643 0.000 -0.766
vn -0.342 0.000 -0.940
vn 0.000 1.000 0.000
vn 0.000 1.000 0.000
vn 0.000 1.000 0.000
vn 0.000 1.000 0.000
vn 0.000 1.000 0.000
vn 0.000 1.000 0.000
vn 0.000 1.000 0.000
vn 0.000 1.000 0.000
vn 0.000 1.000 0.000
vn 0.000 1.000 0.000
vn 0.000 1.000 0.000
vn 0.000 1.000 0.000
vn 0.000 1.000 0.000
vn 0.000 1.000 0.000
vn 0.000 1.000 0.000
vn 0.000 1.000 0.000
vn 0.000 1.000 0.000
vn 0.000 1.000 0.000
vn 0.000 1.000 0.000
vn 0.000 1.000 0.000
vn 0.000 1.000 0.000
vn 0.000 1.000 0.000
vn 0.000 -1.000 0.000
vn 0.000 -1.000 0.000
vn 0.000 -1.000 0.000
vn 0.000 -1.000 0.000
vn 0.000 -1.000 0.000
vn 0.000 -1.000 0.000
vn 0.000 -1.000 0.000
vn 0.000 -1.000 0.000
vn 0.000 -1.000 0.000
vn 0.000 -1.000 0.000
vn 0.000 -1.000 0.000
vn 0.000 -1.000 0.000
vn 0.000 -1.000 0.000
vn 0.000 -1.000 0.000
vn 0.000 -1.000 0.000
vn 0.000 -1.000 0.000
vn 0.000 -1.000 0.000
vn 0.000 -1.000 0.000
vn 0.000 -1.000 0.000
vn 0.000 -1.000 0.000
vn 0.000 -1.000 0.000
vn 0.000 -1.000 0.000
vn 1.000 0.000 0.000
vn 1.000 0.000 0.000
vn 1.000 0.000 0.000
vn 1.000 0.000 0.000
vn -1.000 0.000 0.000
vn -1.000 0.000 0.000
vn -1.000 0.000 0.000
vn -1.000 0.000 0.000
vn 0.000 0.000 1.000
vn 0.000 0.000 1.000
vn 0.000 0.000 1.000
vn 0.000 0.000 1.000
vn 0.000 0.000 -1.000
vn 0.000 0.000 -1.000
vn 0.000 0.000 -1.000
vn 0.000 0.000 -1.000
vt -0.3491 0.1000 0
vt 0.0000 0.1000 0
vt 0.0000 0.0800 0
vt 5.5851 0.1000 0
vt -0.3491 0.0800 0
vt 5.2360 0.1000 0
vt 5.5851 0.0800 0
vt 4.8869 0.1000 0
vt 5.2360 0.0800 0
vt 4.5379 0.1000 0
vt 4.8869 0.0800 0
vt 4.1888 0.1000 0
vt 4.5379 0.0800 0
vt 3.8397 0.1000 0
vt 4.1888 0.0800 0
vt 3.4907 0.1000 0
vt 3.8397 0.0800 0
vt 3.1416 0.1000 0
vt 3.4907 0.0800 0
vt 2.7925 0.1000 0
vt 3.1416 0.0800 0
vt 2.4435 0.1000 0
vt 2.7925 0.0800 0
vt 2.0944 0.1000 0
vt 2.4435 0.0800 0
vt 1.7453 0.1000 0
vt 2.0944 0.0800 0
vt 1.3963 0.1000 0
vt 1.7453 0.0800 0
vt 1.0472 0.1000 0
vt 1.3963 0.0800 0
vt 0.6981 0.1000 0
vt 1.0472 0.0800 0
vt 0.3491 0.1000 0
vt 0.6981 0.0800 0
vt 0.3491 0.0800 0
vt 0.0000 0.0200 0
vt 0.1600 0.0200 0
vt 0.1510 0.0159 0
vt 0.1490 0.0152 0
vt 0.1530 0.0159 0
vt 0.1566 0.0139 0
vt 0.1550 0.0152 0
vt 0.0000 0.0000 0
vt 0.1490 0.0048 0
vt 0.1510 0.0041 0
vt 0.1600 0.0000 0
vt 0.1576 0.0079 0
vt 0.1580 0.0100 0
vt 0.1530 0.0041 0
vt 0.1550 0.0048 0
vt 0.1576 0.0121 0
vt 0.1460 0.0100 0
vt 0.1566 0.0061 0
vt 0.1464 0.0079 0
vt 0.1474 0.0061 0
vt 0.1474 0.0139 0
vt 0.1464 0.0121 0
vt -0.1600 0.0200 0
vt -0.1530 0.0159 0
vt -0.1550 0.0152 0
vt 0.0000 0.0200 0
vt -0.1490 0.0152 0
vt -0.1510 0.0159 0
vt 0.0000 0.0000 0
vt -0.1600 0.0000 0
vt -0.1510 0.0041 0
vt -0.1474 0.0139 0
vt -0.1530 0.0041 0
vt -0.1566 0.0061 0
vt -0.1550 0.0048 0
vt -0.1464 0.0079 0
vt -0.1460 0.0100 0
vt -0.1566 0.0139 0
vt -0.1474 0.0061 0
vt -0.1576 0.0079 0
vt -0.1580 0.0100 0
vt -0.1576 0.0121 0
vt -0.1464 0.0121 0
vt -0.1490 0.0048 0
vt 0.0000 0.0000 0
vt -0.1600 0.0000 0
vt -0.1600 0.0200 0
vt 0.0000 0.0200 0
vt 0.0000 0.0200 0
vt 0.1600 0.0200 0
vt 0.1600 0.0000 0
vt 0.0000 0.0000 0
vt 0.0100 -0.0100 0
vt -0.0100 -0.0100 0
vt -0.0100 0.0100 0
vt 0.0100 0.0100 0
vt 0.0100 0.0100 0
vt -0.0100 0.0100 0
vt -0.0100 -0.0100 0
vt 0.0100 -0.0100 0
f 81/81/81 83/83/83 84/84/84
f 83/83/83 81/81/81 82/82/82
f 37/37/37 58/58/58 53/53/53
f 37/37/37 40/40/40 57/57/57
f 44/44/44 56/56/56 45/45/45
f 58/58/58 37/37/37 57/57/57
f 44/44/44 55/55/55 56/56/56
f 47/47/47 54/54/54 48/48/48
f 44/44/44 53/53/53 55/55/55
f 47/47/47 51/51/51 54/54/54
f 39/39/39 37/37/37 38/38/38
f 37/37/37 39/39/39 40/40/40
f 39/39/39 38/38/38 41/41/41
f 43/43/43 38/38/38 42/42/42
f 46/46/46 44/44/44 45/45/45
f 38/38/38 43/43/43 41/41/41
f 49/49/49 47/47/47 48/48/48
f 51/51/51 47/47/47 50/50/50
f 44/44/44 46/46/46 47/47/47
f 42/42/42 38/38/38 52/52/52
f 47/47/47 49/49/49 38/38/38
f 47/47/47 46/46/46 50/50/50
f 53/53/53 44/44/44 37/37/37
f 38/38/38 49/49/49 52/52/52
f 85/85/85 87/87/87 88/88/88
f 87/87/87 85/85/85 86/86/86
f 64/64/64 62/62/62 63/63/63
f 67/67/67 65/65/65 66/66/66
f 59/59/59 78/78/78 77/77/77
f 65/65/65 73/73/73 62/62/62
f 65/65/65 67/67/67 80/80/80
f 62/62/62 79/79/79 68/68/68
f 66/66/66 77/77/77 76/76/76
f 75/75/75 65/65/65 80/80/80
f 79/79/79 62/62/62 73/73/73
f 59/59/59 74/74/74 78/78/78
f 77/77/77 66/66/66 59/59/59
f 70/70/70 66/66/66 76/76/76
f 72/72/72 65/65/65 75/75/75
f 59/59/59 61/61/61 74/74/74
f 66/66/66 71/71/71 69/69/69
f 73/73/73 65/65/65 72/72/72
f 62/62/62 64/64/64 59/59/59
f 71/71/71 66/66/66 70/70/70
f 67/67/67 66/66/66 69/69/69
f 63/63/63 62/62/62 68/68/68
f 60/60/60 59/59/59 64/64/64
f 61/61/61 59/59/59 60/60/60
f 89/89/89 91/91/91 92/92/92
f 91/91/91 89/89/89 90/90/90
f 95/95/95 93/93/93 94/94/94
f 93/93/93 95/95/95 96/96/96
f 6/6/6 7/7/7 9/9/9
f 8/8/8 9/9/9 11/11/11
f 10/10/10 11/11/11 13/13/13
f 12/12/12 13/13/13 15/15/15
f 14/14/14 15/15/15 17/17/17
f 16/16/16 17/17/17 19/19/19
f 18/18/18 19/19/19 21/21/21
f 20/20/20 21/21/21 23/23/23
f 22/22/22 23/23/23 25/25/25
f 24/24/24 25/25/25 27/27/27
f 26/26/26 27/27/27 29/29/29
f 28/28/28 29/29/29 31/31/31
f 30/30/30 31/31/31 33/33/33
f 4/4/4 5/5/5 7/7/7
f 34/34/34 35/35/35 36/36/36
f 2/2/2 36/36/36 3/3/3
f 36/36/36 2/2/2 34/34/34
f 35/35/35 34/34/34 32/32/32
f 33/33/33 32/32/32 30/30/30
f 31/31/31 30/30/30 28/28/28
f 29/29/29 28/28/28 26/26/26
f 27/27/27 26/26/26 24/24/24
f 25/25/25 24/24/24 22/22/22
f 23/23/23 22/22/22 20/20/20
f 21/21/21 20/20/20 18/18/18
f 19/19/19 18/18/18 16/16/16
f 17/17/17 16/16/16 14/14/14
f 15/15/15 14/14/14 12/12/12
f 32/32/32 33/33/33 35/35/35
f 1/1/1 3/3/3 5/5/5
f 13/13/13 12/12/12 10/10/10
f 11/11/11 10/10/10 8/8/8
f 9/9/9 8/8/8 6/6/6
f 7/7/7 6/6/6 4/4/4
f 5/5/5 4/4/4 1/1/1
f 3/3/3 1/1/1 2/2/2
