# Wavefront .OBJ file for tesselated shape: Torso-1 path: C:\Users\dasgu\Documents\Chrono_Biped\BIped_V8\Torso.SLDPRT

g body_1
v 0.000000 0.130000 0.060000
v 0.002565 0.130000 0.067048
v 0.004821 0.130000 0.065745
v 0.006495 0.130000 0.063750
v 0.007386 0.130000 0.061302
v 0.007386 0.130000 0.058698
v 0.006495 0.130000 0.056250
v 0.004821 0.130000 0.054255
v 0.002565 0.130000 0.052952
v 0.000000 0.130000 0.052500
v -0.002565 0.130000 0.052952
v -0.004821 0.130000 0.054255
v -0.006495 0.130000 0.056250
v -0.007386 0.130000 0.058698
v -0.007386 0.130000 0.061302
v -0.006495 0.130000 0.063750
v -0.004821 0.130000 0.065745
v -0.002565 0.130000 0.067048
v 0.000000 0.130000 0.067500
v 0.000000 0.010000 0.052500
v 0.000000 0.130000 0.052500
v 0.002565 0.130000 0.052952
v 0.002565 0.010000 0.052952
v 0.004821 0.130000 0.054255
v 0.004821 0.010000 0.054255
v 0.006495 0.130000 0.056250
v 0.006495 0.010000 0.056250
v 0.007386 0.130000 0.058698
v 0.007386 0.010000 0.058698
v 0.007386 0.130000 0.061302
v 0.007386 0.010000 0.061302
v 0.006495 0.130000 0.063750
v 0.006495 0.010000 0.063750
v 0.004821 0.130000 0.065745
v 0.004821 0.010000 0.065745
v 0.002565 0.130000 0.067048
v 0.002565 0.010000 0.067048
v 0.000000 0.130000 0.067500
v 0.000000 0.010000 0.067500
v -0.002565 0.130000 0.067048
v -0.002565 0.010000 0.067048
v -0.004821 0.130000 0.065745
v -0.004821 0.010000 0.065745
v -0.006495 0.130000 0.063750
v -0.006495 0.010000 0.063750
v -0.007386 0.130000 0.061302
v -0.007386 0.010000 0.061302
v -0.007386 0.130000 0.058698
v -0.007386 0.010000 0.058698
v -0.006495 0.130000 0.056250
v -0.006495 0.010000 0.056250
v -0.004821 0.130000 0.054255
v -0.004821 0.010000 0.054255
v -0.002565 0.130000 0.052952
v -0.002565 0.010000 0.052952
v 0.010000 0.010000 0.120000
v 0.006495 0.010000 0.063750
v 0.004821 0.010000 0.065745
v 0.007386 0.010000 0.061302
v 0.010000 0.010000 0.000000
v 0.007386 0.010000 0.058698
v -0.010000 0.010000 0.120000
v -0.004821 0.010000 0.065745
v -0.006495 0.010000 0.063750
v 0.006495 0.010000 0.056250
v -0.007386 0.010000 0.061302
v -0.007386 0.010000 0.058698
v -0.002565 0.010000 0.067048
v 0.000000 0.010000 0.067500
v 0.004821 0.010000 0.054255
v -0.010000 0.010000 0.000000
v 0.000000 0.010000 0.052500
v -0.004821 0.010000 0.054255
v -0.002565 0.010000 0.052952
v 0.002565 0.010000 0.067048
v 0.002565 0.010000 0.052952
v -0.006495 0.010000 0.056250
v 0.010000 -0.010000 0.120000
v 0.010000 -0.010000 0.000000
v 0.010000 0.010000 0.000000
v 0.010000 0.010000 0.120000
v -0.010000 0.010000 0.120000
v -0.010000 0.010000 0.000000
v -0.010000 -0.010000 0.000000
v -0.010000 -0.010000 0.120000
v -0.010000 -0.010000 0.120000
v -0.010000 -0.010000 0.000000
v 0.010000 -0.010000 0.000000
v 0.010000 -0.010000 0.120000
v 0.010000 0.010000 0.120000
v 0.004045 0.002939 0.120000
v 0.004891 0.001040 0.120000
v 0.000523 0.004973 0.120000
v 0.002500 0.004330 0.120000
v -0.010000 0.010000 0.120000
v -0.001545 0.004755 0.120000
v -0.003346 0.003716 0.120000
v -0.010000 -0.010000 0.120000
v -0.005000 0.000000 0.120000
v -0.004568 0.002034 0.120000
v 0.010000 -0.010000 0.120000
v 0.000523 -0.004973 0.120000
v -0.001545 -0.004755 0.120000
v 0.005000 0.000000 0.120000
v -0.004568 -0.002034 0.120000
v -0.003346 -0.003716 0.120000
v 0.004045 -0.002939 0.120000
v 0.002500 -0.004330 0.120000
v 0.004891 -0.001040 0.120000
v 0.010000 -0.010000 0.000000
v 0.004891 -0.001040 0.000000
v 0.005000 0.000000 0.000000
v -0.010000 0.010000 0.000000
v -0.004568 0.002034 0.000000
v -0.005000 0.000000 0.000000
v 0.010000 0.010000 0.000000
v 0.000523 0.004973 0.000000
v -0.003346 0.003716 0.000000
v -0.001545 0.004755 0.000000
v 0.004045 -0.002939 0.000000
v -0.010000 -0.010000 0.000000
v -0.001545 -0.004755 0.000000
v 0.000523 -0.004973 0.000000
v 0.004045 0.002939 0.000000
v 0.002500 0.004330 0.000000
v 0.004891 0.001040 0.000000
v 0.002500 -0.004330 0.000000
v -0.003346 -0.003716 0.000000
v -0.004568 -0.002034 0.000000
v -0.004568 -0.002034 0.000000
v -0.005000 0.000000 0.000000
v -0.005000 0.000000 0.120000
v -0.003346 -0.003716 0.000000
v -0.004568 -0.002034 0.120000
v -0.001545 -0.004755 0.000000
v -0.003346 -0.003716 0.120000
v 0.000523 -0.004973 0.000000
v -0.001545 -0.004755 0.120000
v 0.002500 -0.004330 0.000000
v 0.000523 -0.004973 0.120000
v 0.004045 -0.002939 0.000000
v 0.002500 -0.004330 0.120000
v 0.004891 -0.001040 0.000000
v 0.004045 -0.002939 0.120000
v 0.004891 0.001040 0.000000
v 0.005000 0.000000 0.000000
v 0.005000 0.000000 0.120000
v 0.004891 -0.001040 0.120000
v 0.004045 0.002939 0.000000
v 0.004891 0.001040 0.120000
v 0.002500 0.004330 0.000000
v 0.004045 0.002939 0.120000
v 0.000523 0.004973 0.000000
v 0.002500 0.004330 0.120000
v -0.001545 0.004755 0.000000
v 0.000523 0.004973 0.120000
v -0.003346 0.003716 0.000000
v -0.001545 0.004755 0.120000
v -0.004568 0.002034 0.000000
v -0.003346 0.003716 0.120000
v -0.004568 0.002034 0.120000
vn 0.000 1.000 0.000
vn 0.000 1.000 0.000
vn 0.000 1.000 0.000
vn 0.000 1.000 0.000
vn 0.000 1.000 0.000
vn 0.000 1.000 0.000
vn 0.000 1.000 0.000
vn 0.000 1.000 0.000
vn 0.000 1.000 0.000
vn 0.000 1.000 0.000
vn 0.000 1.000 0.000
vn 0.000 1.000 0.000
vn 0.000 1.000 0.000
vn 0.000 1.000 0.000
vn 0.000 1.000 0.000
vn 0.000 1.000 0.000
vn 0.000 1.000 0.000
vn 0.000 1.000 0.000
vn 0.000 1.000 0.000
vn 0.000 0.000 -1.000
vn 0.000 0.000 -1.000
vn 0.342 0.000 -0.940
vn 0.342 0.000 -0.940
vn 0.643 0.000 -0.766
vn 0.643 0.000 -0.766
vn 0.866 0.000 -0.500
vn 0.866 0.000 -0.500
vn 0.985 0.000 -0.174
vn 0.985 0.000 -0.174
vn 0.985 0.000 0.174
vn 0.985 0.000 0.174
vn 0.866 0.000 0.500
vn 0.866 0.000 0.500
vn 0.643 0.000 0.766
vn 0.643 0.000 0.766
vn 0.342 0.000 0.940
vn 0.342 0.000 0.940
vn 0.000 0.000 1.000
vn 0.000 0.000 1.000
vn -0.342 0.000 0.940
vn -0.342 0.000 0.940
vn -0.643 0.000 0.766
vn -0.643 0.000 0.766
vn -0.866 0.000 0.500
vn -0.866 0.000 0.500
vn -0.985 0.000 0.174
vn -0.985 0.000 0.174
vn -0.985 0.000 -0.174
vn -0.985 0.000 -0.174
vn -0.866 0.000 -0.500
vn -0.866 0.000 -0.500
vn -0.643 0.000 -0.766
vn -0.643 0.000 -0.766
vn -0.342 0.000 -0.940
vn -0.342 0.000 -0.940
vn 0.000 1.000 0.000
vn 0.000 1.000 0.000
vn 0.000 1.000 0.000
vn 0.000 1.000 0.000
vn 0.000 1.000 0.000
vn 0.000 1.000 0.000
vn 0.000 1.000 0.000
vn 0.000 1.000 0.000
vn 0.000 1.000 0.000
vn 0.000 1.000 0.000
vn 0.000 1.000 0.000
vn 0.000 1.000 0.000
vn 0.000 1.000 0.000
vn 0.000 1.000 0.000
vn 0.000 1.000 0.000
vn 0.000 1.000 0.000
vn 0.000 1.000 0.000
vn 0.000 1.000 0.000
vn 0.000 1.000 0.000
vn 0.000 1.000 0.000
vn 0.000 1.000 0.000
vn 0.000 1.000 0.000
vn 1.000 0.000 0.000
vn 1.000 0.000 0.000
vn 1.000 0.000 0.000
vn 1.000 0.000 0.000
vn -1.000 0.000 0.000
vn -1.000 0.000 0.000
vn -1.000 0.000 0.000
vn -1.000 0.000 0.000
vn 0.000 -1.000 0.000
vn 0.000 -1.000 0.000
vn 0.000 -1.000 0.000
vn 0.000 -1.000 0.000
vn 0.000 0.000 1.000
vn 0.000 0.000 1.000
vn 0.000 0.000 1.000
vn 0.000 0.000 1.000
vn 0.000 0.000 1.000
vn 0.000 0.000 1.000
vn 0.000 0.000 1.000
vn 0.000 0.000 1.000
vn 0.000 0.000 1.000
vn 0.000 0.000 1.000
vn 0.000 0.000 1.000
vn 0.000 0.000 1.000
vn 0.000 0.000 1.000
vn 0.000 0.000 1.000
vn 0.000 0.000 1.000
vn 0.000 0.000 1.000
vn 0.000 0.000 1.000
vn 0.000 0.000 1.000
vn 0.000 0.000 1.000
vn 0.000 0.000 1.000
vn 0.000 0.000 -1.000
vn 0.000 0.000 -1.000
vn 0.000 0.000 -1.000
vn 0.000 0.000 -1.000
vn 0.000 0.000 -1.000
vn 0.000 0.000 -1.000
vn 0.000 0.000 -1.000
vn 0.000 0.000 -1.000
vn 0.000 0.000 -1.000
vn 0.000 0.000 -1.000
vn 0.000 0.000 -1.000
vn 0.000 0.000 -1.000
vn 0.000 0.000 -1.000
vn 0.000 0.000 -1.000
vn 0.000 0.000 -1.000
vn 0.000 0.000 -1.000
vn 0.000 0.000 -1.000
vn 0.000 0.000 -1.000
vn 0.000 0.000 -1.000
vn 0.000 0.000 -1.000
vn 0.914 0.407 0.000
vn 1.000 0.000 0.000
vn 1.000 0.000 0.000
vn 0.669 0.743 0.000
vn 0.914 0.407 0.000
vn 0.309 0.951 0.000
vn 0.669 0.743 0.000
vn -0.105 0.995 0.000
vn 0.309 0.951 0.000
vn -0.500 0.866 0.000
vn -0.105 0.995 0.000
vn -0.809 0.588 0.000
vn -0.500 0.866 0.000
vn -0.978 0.208 0.000
vn -0.809 0.588 0.000
vn -0.978 -0.208 0.000
vn -1.000 0.000 0.000
vn -1.000 0.000 0.000
vn -0.978 0.208 0.000
vn -0.809 -0.588 0.000
vn -0.978 -0.208 0.000
vn -0.500 -0.866 0.000
vn -0.809 -0.588 0.000
vn -0.105 -0.995 0.000
vn -0.500 -0.866 0.000
vn 0.309 -0.951 0.000
vn -0.105 -0.995 0.000
vn 0.669 -0.743 0.000
vn 0.309 -0.951 0.000
vn 0.914 -0.407 0.000
vn 0.669 -0.743 0.000
vn 0.914 -0.407 0.000
vt 0.0000 0.0000 0
vt 0.0070 0.0026 0
vt 0.0057 0.0048 0
vt 0.0038 0.0065 0
vt 0.0013 0.0074 0
vt -0.0013 0.0074 0
vt -0.0038 0.0065 0
vt -0.0057 0.0048 0
vt -0.0070 0.0026 0
vt -0.0075 0.0000 0
vt -0.0070 -0.0026 0
vt -0.0057 -0.0048 0
vt -0.0038 -0.0065 0
vt -0.0013 -0.0074 0
vt 0.0013 -0.0074 0
vt 0.0038 -0.0065 0
vt 0.0057 -0.0048 0
vt 0.0070 -0.0026 0
vt 0.0075 0.0000 0
vt 6.2832 0.1200 0
vt 6.2832 0.0000 0
vt 6.6323 0.0000 0
vt 6.6323 0.1200 0
vt 6.9813 0.0000 0
vt 6.9813 0.1200 0
vt 1.0472 0.0000 0
vt 1.0472 0.1200 0
vt 1.3963 0.0000 0
vt 1.3963 0.1200 0
vt 1.7453 0.0000 0
vt 1.7453 0.1200 0
vt 2.0944 0.0000 0
vt 2.0944 0.1200 0
vt 2.4435 0.0000 0
vt 2.4435 0.1200 0
vt 2.7925 0.0000 0
vt 2.7925 0.1200 0
vt 3.1416 0.0000 0
vt 3.1416 0.1200 0
vt 3.4907 0.0000 0
vt 3.4907 0.1200 0
vt 3.8397 0.0000 0
vt 3.8397 0.1200 0
vt 4.1888 0.0000 0
vt 4.1888 0.1200 0
vt 4.5379 0.0000 0
vt 4.5379 0.1200 0
vt 4.8869 0.0000 0
vt 4.8869 0.1200 0
vt 5.2360 0.0000 0
vt 5.2360 0.1200 0
vt 5.5851 0.0000 0
vt 5.5851 0.1200 0
vt 5.9341 0.0000 0
vt 5.9341 0.1200 0
vt 0.0000 0.0200 0
vt 0.0563 0.0165 0
vt 0.0543 0.0148 0
vt 0.0587 0.0174 0
vt 0.1200 0.0200 0
vt 0.0613 0.0174 0
vt 0.0000 0.0000 0
vt 0.0543 0.0052 0
vt 0.0563 0.0035 0
vt 0.0638 0.0165 0
vt 0.0587 0.0026 0
vt 0.0613 0.0026 0
vt 0.0530 0.0074 0
vt 0.0525 0.0100 0
vt 0.0657 0.0148 0
vt 0.1200 0.0000 0
vt 0.0675 0.0100 0
vt 0.0657 0.0052 0
vt 0.0670 0.0074 0
vt 0.0530 0.0126 0
vt 0.0670 0.0126 0
vt 0.0638 0.0035 0
vt 0.0200 0.0000 0
vt 0.0200 -0.1200 0
vt 0.0000 -0.1200 0
vt 0.0000 0.0000 0
vt 0.0000 0.0000 0
vt 0.0000 -0.1200 0
vt -0.0200 -0.1200 0
vt -0.0200 0.0000 0
vt 0.0000 0.0000 0
vt -0.1200 0.0000 0
vt -0.1200 0.0200 0
vt 0.0000 0.0200 0
vt 0.0100 0.0100 0
vt 0.0040 0.0029 0
vt 0.0049 0.0010 0
vt 0.0005 0.0050 0
vt 0.0025 0.0043 0
vt -0.0100 0.0100 0
vt -0.0015 0.0048 0
vt -0.0033 0.0037 0
vt -0.0100 -0.0100 0
vt -0.0050 0.0000 0
vt -0.0046 0.0020 0
vt 0.0100 -0.0100 0
vt 0.0005 -0.0050 0
vt -0.0015 -0.0048 0
vt 0.0050 0.0000 0
vt -0.0046 -0.0020 0
vt -0.0033 -0.0037 0
vt 0.0040 -0.0029 0
vt 0.0025 -0.0043 0
vt 0.0049 -0.0010 0
vt 0.0100 -0.0100 0
vt 0.0049 -0.0010 0
vt 0.0050 0.0000 0
vt -0.0100 0.0100 0
vt -0.0046 0.0020 0
vt -0.0050 0.0000 0
vt 0.0100 0.0100 0
vt 0.0005 0.0050 0
vt -0.0033 0.0037 0
vt -0.0015 0.0048 0
vt 0.0040 -0.0029 0
vt -0.0100 -0.0100 0
vt -0.0015 -0.0048 0
vt 0.0005 -0.0050 0
vt 0.0040 0.0029 0
vt 0.0025 0.0043 0
vt 0.0049 0.0010 0
vt 0.0025 -0.0043 0
vt -0.0033 -0.0037 0
vt -0.0046 -0.0020 0
vt -0.4189 0.1200 0
vt 0.0000 0.1200 0
vt 0.0000 0.0000 0
vt 5.4454 0.1200 0
vt -0.4189 0.0000 0
vt 5.0265 0.1200 0
vt 5.4454 0.0000 0
vt 4.6077 0.1200 0
vt 5.0265 0.0000 0
vt 4.1888 0.1200 0
vt 4.6077 0.0000 0
vt 3.7699 0.1200 0
vt 4.1888 0.0000 0
vt 3.3510 0.1200 0
vt 3.7699 0.0000 0
vt 2.9322 0.1200 0
vt 3.1416 0.1200 0
vt 3.1416 0.0000 0
vt 3.3510 0.0000 0
vt 2.5133 0.1200 0
vt 2.9322 0.0000 0
vt 2.0944 0.1200 0
vt 2.5133 0.0000 0
vt 1.6755 0.1200 0
vt 2.0944 0.0000 0
vt 1.2566 0.1200 0
vt 1.6755 0.0000 0
vt 0.8378 0.1200 0
vt 1.2566 0.0000 0
vt 0.4189 0.1200 0
vt 0.8378 0.0000 0
vt 0.4189 0.0000 0
f 92/92/92 90/90/90 91/91/91
f 94/94/94 90/90/90 93/93/93
f 93/93/93 95/95/95 96/96/96
f 90/90/90 94/94/94 91/91/91
f 96/96/96 95/95/95 97/97/97
f 99/99/99 95/95/95 98/98/98
f 95/95/95 93/93/93 90/90/90
f 95/95/95 99/99/99 100/100/100
f 102/102/102 98/98/98 101/101/101
f 95/95/95 100/100/100 97/97/97
f 98/98/98 102/102/102 103/103/103
f 104/104/104 101/101/101 90/90/90
f 99/99/99 98/98/98 105/105/105
f 98/98/98 103/103/103 106/106/106
f 108/108/108 101/101/101 107/107/107
f 101/101/101 104/104/104 109/109/109
f 98/98/98 106/106/106 105/105/105
f 101/101/101 109/109/109 107/107/107
f 101/101/101 108/108/108 102/102/102
f 90/90/90 92/92/92 104/104/104
f 113/113/113 115/115/115 121/121/121
f 121/121/121 123/123/123 110/110/110
f 129/129/129 121/121/121 115/115/115
f 116/116/116 126/126/126 124/124/124
f 128/128/128 121/121/121 129/129/129
f 110/110/110 127/127/127 120/120/120
f 116/116/116 125/125/125 117/117/117
f 122/122/122 121/121/121 128/128/128
f 127/127/127 110/110/110 123/123/123
f 116/116/116 112/112/112 126/126/126
f 125/125/125 116/116/116 124/124/124
f 113/113/113 119/119/119 118/118/118
f 123/123/123 121/121/121 122/122/122
f 111/111/111 110/110/110 120/120/120
f 113/113/113 117/117/117 119/119/119
f 114/114/114 113/113/113 118/118/118
f 110/110/110 112/112/112 116/116/116
f 117/117/117 113/113/113 116/116/116
f 115/115/115 113/113/113 114/114/114
f 112/112/112 110/110/110 111/111/111
f 80/80/80 78/78/78 79/79/79
f 78/78/78 80/80/80 81/81/81
f 61/61/61 56/56/56 60/60/60
f 56/56/56 61/61/61 59/59/59
f 64/64/64 62/62/62 63/63/63
f 61/61/61 60/60/60 65/65/65
f 67/67/67 62/62/62 66/66/66
f 63/63/63 62/62/62 68/68/68
f 69/69/69 62/62/62 56/56/56
f 65/65/65 60/60/60 70/70/70
f 72/72/72 60/60/60 71/71/71
f 74/74/74 71/71/71 73/73/73
f 62/62/62 67/67/67 71/71/71
f 62/62/62 69/69/69 68/68/68
f 56/56/56 58/58/58 75/75/75
f 60/60/60 72/72/72 76/76/76
f 73/73/73 71/71/71 77/77/77
f 62/62/62 64/64/64 66/66/66
f 60/60/60 76/76/76 70/70/70
f 71/71/71 67/67/67 77/77/77
f 71/71/71 74/74/74 72/72/72
f 56/56/56 75/75/75 69/69/69
f 58/58/58 56/56/56 57/57/57
f 57/57/57 56/56/56 59/59/59
f 82/82/82 84/84/84 85/85/85
f 84/84/84 82/82/82 83/83/83
f 88/88/88 86/86/86 87/87/87
f 86/86/86 88/88/88 89/89/89
f 158/158/158 157/157/157 155/155/155
f 160/160/160 159/159/159 157/157/157
f 161/161/161 131/131/131 159/159/159
f 131/131/131 161/161/161 132/132/132
f 159/159/159 160/160/160 161/161/161
f 157/157/157 158/158/158 160/160/160
f 155/155/155 156/156/156 158/158/158
f 153/153/153 154/154/154 156/156/156
f 151/151/151 152/152/152 154/154/154
f 149/149/149 150/150/150 152/152/152
f 145/145/145 147/147/147 150/150/150
f 143/143/143 144/144/144 148/148/148
f 141/141/141 142/142/142 144/144/144
f 139/139/139 140/140/140 142/142/142
f 137/137/137 138/138/138 140/140/140
f 135/135/135 136/136/136 138/138/138
f 133/133/133 134/134/134 136/136/136
f 130/130/130 132/132/132 134/134/134
f 132/132/132 130/130/130 131/131/131
f 134/134/134 133/133/133 130/130/130
f 136/136/136 135/135/135 133/133/133
f 138/138/138 137/137/137 135/135/135
f 140/140/140 139/139/139 137/137/137
f 142/142/142 141/141/141 139/139/139
f 144/144/144 143/143/143 141/141/141
f 147/147/147 145/145/145 146/146/146
f 146/146/146 148/148/148 147/147/147
f 148/148/148 146/146/146 143/143/143
f 150/150/150 149/149/149 145/145/145
f 152/152/152 151/151/151 149/149/149
f 154/154/154 153/153/153 151/151/151
f 156/156/156 155/155/155 153/153/153
f 26/26/26 25/25/25 24/24/24
f 28/28/28 27/27/27 26/26/26
f 30/30/30 29/29/29 28/28/28
f 32/32/32 31/31/31 30/30/30
f 34/34/34 33/33/33 32/32/32
f 36/36/36 35/35/35 34/34/34
f 38/38/38 37/37/37 36/36/36
f 40/40/40 39/39/39 38/38/38
f 42/42/42 41/41/41 40/40/40
f 44/44/44 43/43/43 42/42/42
f 46/46/46 45/45/45 44/44/44
f 48/48/48 47/47/47 46/46/46
f 50/50/50 49/49/49 48/48/48
f 52/52/52 51/51/51 50/50/50
f 54/54/54 53/53/53 52/52/52
f 21/21/21 55/55/55 54/54/54
f 55/55/55 21/21/21 20/20/20
f 53/53/53 54/54/54 55/55/55
f 51/51/51 52/52/52 53/53/53
f 24/24/24 23/23/23 22/22/22
f 47/47/47 48/48/48 49/49/49
f 45/45/45 46/46/46 47/47/47
f 43/43/43 44/44/44 45/45/45
f 41/41/41 42/42/42 43/43/43
f 39/39/39 40/40/40 41/41/41
f 37/37/37 38/38/38 39/39/39
f 35/35/35 36/36/36 37/37/37
f 33/33/33 34/34/34 35/35/35
f 31/31/31 32/32/32 33/33/33
f 29/29/29 30/30/30 31/31/31
f 27/27/27 28/28/28 29/29/29
f 25/25/25 26/26/26 27/27/27
f 23/23/23 24/24/24 25/25/25
f 20/20/20 22/22/22 23/23/23
f 22/22/22 20/20/20 21/21/21
f 49/49/49 50/50/50 51/51/51
f 1/1/1 19/19/19 2/2/2
f 1/1/1 18/18/18 19/19/19
f 1/1/1 17/17/17 18/18/18
f 1/1/1 16/16/16 17/17/17
f 1/1/1 15/15/15 16/16/16
f 1/1/1 14/14/14 15/15/15
f 1/1/1 13/13/13 14/14/14
f 1/1/1 12/12/12 13/13/13
f 1/1/1 11/11/11 12/12/12
f 1/1/1 10/10/10 11/11/11
f 1/1/1 9/9/9 10/10/10
f 1/1/1 8/8/8 9/9/9
f 1/1/1 7/7/7 8/8/8
f 1/1/1 6/6/6 7/7/7
f 1/1/1 5/5/5 6/6/6
f 1/1/1 4/4/4 5/5/5
f 1/1/1 3/3/3 4/4/4
f 3/3/3 1/1/1 2/2/2
